<?xml version="1.0" standalone="no"?><!DOCTYPE svg PUBLIC "-//W3C//DTD SVG 1.1//EN" "http://www.w3.org/Graphics/SVG/1.1/DTD/svg11.dtd"><svg t="1615709451279" class="icon" viewBox="0 0 1024 1024" version="1.1" xmlns="http://www.w3.org/2000/svg" p-id="3194" xmlns:xlink="http://www.w3.org/1999/xlink" width="200" height="200"><defs><style type="text/css"></style></defs><path d="M863.52638 160.77801h-0.275098a495.517067 495.517067 0 0 0-701.952369 0h-0.525997C70.668252 250.282809 15.045039 374.572175 15.045039 512.406278a493.010622 493.010622 0 0 0 145.72533 350.555897c90.081739 90.364478 214.09346 145.982597 351.078073 145.982598a492.563588 492.563588 0 0 0 351.131563-145.977504h0.551469a493.992567 493.992567 0 0 0 145.418393-350.560991c0-137.839198-55.344295-262.128564-145.423487-351.633362z m-54.293575 648.44588v0.275098a420.454894 420.454894 0 0 1-594.191786 0l-0.551469-0.275098a418.787752 418.787752 0 0 1-122.634959-296.817612c0-116.677058 46.679993-221.959215 122.634959-297.664555l0.551469-0.276371a419.905972 419.905972 0 0 1 594.191786 0v0.276371c76.506435 75.710435 123.186428 180.992592 123.186428 297.664555a416.976692 416.976692 0 0 1-123.186428 296.812518zM574.537589 334.679197a34.334987 34.334987 0 0 1 34.458526 34.483998 23.077635 23.077635 0 0 0 46.153996 0c0-44.001612-36.361285-80.338698-80.61889-80.338698h-39.347877v-37.966021a23.081456 23.081456 0 0 0-23.339997-23.064899 22.783433 22.783433 0 0 0-22.763055 23.064899v37.966021h-39.610239a80.630352 80.630352 0 0 0-80.313226 80.338698v81.63777a80.548842 80.548842 0 0 0 79.761757 80.588324h40.169349v157.92642h-39.61788a34.5273 34.5273 0 0 1-24.441661-10.042338v-0.275097a34.278948 34.278948 0 0 1-9.741767-24.417463 23.066172 23.066172 0 0 0-46.129798 0 81.497674 81.497674 0 0 0 23.590896 56.998702c14.674421 14.098754 35.009995 23.865993 56.72233 23.865993h39.61788v37.966021a22.685366 22.685366 0 0 0 22.763056 22.542723c12.772936 0 23.339997-10.042337 23.339996-22.542723v-37.966021h39.346604c45.32743 0 80.61889-35.812363 80.61889-80.864695v-88.451531a81.581732 81.581732 0 0 0-80.61889-80.864695h-39.354245V334.679197h39.354245z m-85.445835 150.585388h-40.169349a34.787115 34.787115 0 0 1-23.890192-9.743041 34.342628 34.342628 0 0 1-9.741767-24.716758v-81.63777a34.291684 34.291684 0 0 1 34.183428-34.483998h39.61788v150.581567z m85.445835 46.128525a36.949688 36.949688 0 0 1 24.716758 10.04361 35.586936 35.586936 0 0 1 9.741768 24.69256v88.452805a34.547678 34.547678 0 0 1-34.458526 34.734897h-39.354245v-157.92642h39.354245z" p-id="3195"></path></svg>