<?xml version="1.0" standalone="no"?><!DOCTYPE svg PUBLIC "-//W3C//DTD SVG 1.1//EN" "http://www.w3.org/Graphics/SVG/1.1/DTD/svg11.dtd"><svg t="1615709469698" class="icon" viewBox="0 0 1024 1024" version="1.1" xmlns="http://www.w3.org/2000/svg" p-id="4054" xmlns:xlink="http://www.w3.org/1999/xlink" width="200" height="200"><defs><style type="text/css"></style></defs><path d="M725.333333 85.333333H298.666667a213.418667 213.418667 0 0 0-213.333334 213.333334v426.666666a213.12 213.12 0 0 0 213.333334 213.333334h426.666666a212.864 212.864 0 0 0 213.333334-213.333334V298.666667a213.12 213.12 0 0 0-213.333334-213.333334zM347.306667 733.013333a32 32 0 0 1-64 0V524.8a32 32 0 0 1 64 0z m196.693333 0a32 32 0 0 1-64 0v-289.706666a32 32 0 0 1 64 0z m197.12 0a32 32 0 0 1-64 0V291.413333a32 32 0 1 1 64 0z" p-id="4055"></path></svg>