<?xml version="1.0" standalone="no"?><!DOCTYPE svg PUBLIC "-//W3C//DTD SVG 1.1//EN" "http://www.w3.org/Graphics/SVG/1.1/DTD/svg11.dtd"><svg t="1615709441340" class="icon" viewBox="0 0 1142 1024" version="1.1" xmlns="http://www.w3.org/2000/svg" p-id="2135" xmlns:xlink="http://www.w3.org/1999/xlink" width="223.046875" height="200"><defs><style type="text/css"></style></defs><path d="M462.192499 1023.971289c-42.358554 0-82.903519-17.346335-111.231878-47.593558l-256.893241-275.574645c-28.45756-30.491268-42.616954-70.758691-39.860682-113.370861 2.540939-40.942136 20.628979-79.14714 50.924055-107.49464l497.067007-463.489287c13.188-12.278813 30.462557-18.111966 47.526565-16.11654l376.752827 32.553688c31.252114 2.636643 55.235516 28.3475 55.742747 59.795808l6.239895 378.776965c0.196193 17.489891-6.900252 34.07538-19.466177 45.684265l-496.90431 463.340946C541.980855 1008.529462 502.957583 1023.971289 462.192499 1023.971289zM645.948806 67.243152 150.86287 528.894924c-17.714795 16.575919-28.314004 38.879716-29.797415 62.772199-1.555189 24.079106 6.254251 46.574311 21.99276 63.437342l256.850174 275.531578c15.657161 16.719474 38.382056 26.342503 62.28411 26.342503 23.758498 0 46.564741-9.058376 64.217329-25.505094l495.023728-461.584779-6.10591-370.73305L645.948806 67.243152zM878.399266 299.995079c-1.210655 0-2.421309-0.033496-3.631964-0.100489-18.978087-0.904402-37.286246-9.7618-50.062719-24.284869-12.479791-14.178535-19.131213-33.21883-18.245952-52.249554 0.880476-19.040294 9.331132-37.405876 23.189059-50.364187 14.140254-13.226281 33.257111-20.241379 52.407465-19.226917 18.973302 0.904402 37.276676 9.757014 50.057934 24.280084 12.484576 14.188106 19.135998 33.233185 18.245952 52.254339-0.890046 19.05465-9.340702 37.415447-23.189059 50.364187l0 0.004785C913.92456 293.056545 896.32461 299.995079 878.399266 299.995079zM878.538037 220.675672c-0.96661 0-2.249042 0.425882-3.129518 1.248936-1.119736 1.047958-1.95236 2.914184-2.028923 4.545936-0.081348 1.708315 0.583794 3.713312 1.612611 4.885685 0.890046 1.009676 2.277753 1.59347 3.129518 1.636537 0.909187 0.057422 2.359102-0.373245 3.292215-1.248936 1.100595-1.033602 1.95236-2.942895 2.028923-4.555506 0.076563-1.693959-0.588579-3.698956-1.617396-4.876115-0.885261-1.004891-2.272968-1.588685-3.124733-1.631752C878.648096 220.675672 878.590674 220.675672 878.538037 220.675672z" p-id="2136"></path></svg>